<svg xmlns="http://www.w3.org/2000/svg" version="1.1" xmlns:xlink="http://www.w3.org/1999/xlink" xmlns:svgjs="http://svgjs.dev/svgjs" width="1500" height="1500" viewBox="0 0 1500 1500">
  <rect width="1500" height="1500" fill="#000000" rx="275"/>
  <g transform="matrix(0.6666666666666666,0,0,0.6666666666666666,249.39393939393938,450.39480917642334)">
    <svg viewBox="0 0 396 237" data-background-color="#ffffff" preserveAspectRatio="xMidYMid meet" height="897" width="1500" xmlns="http://www.w3.org/2000/svg" xmlns:xlink="http://www.w3.org/1999/xlink">
      <g id="tight-bounds" transform="matrix(1,0,0,1,0.2400000000000091,0.2398498748957536)">
        <svg viewBox="0 0 395.52 236.5203002502085" height="236.5203002502085" width="395.52">
          <g>
            <svg viewBox="0 0 395.52 236.5203002502085" height="236.5203002502085" width="395.52">
              <g>
                <svg viewBox="0 0 395.52 236.5203002502085" height="236.5203002502085" width="395.52">
                  <g id="textblocktransform">
                    <svg viewBox="0 0 395.52 236.5203002502085" height="236.5203002502085" width="395.52" id="textblock">
                      <g>
                        <svg viewBox="0 0 395.52 236.5203002502085" height="236.5203002502085" width="395.52">
                          <g transform="matrix(1,0,0,1,0,0)">
                            <svg width="395.52" viewBox="1.2 -35.01 58.54 35.01" height="236.5203002502085" data-palette-color="#2a2c35">
                              <path d="M1.2-24.51L1.2-24.51Q1.2-26.68 2.03-28.59 2.86-30.49 4.28-31.92 5.71-33.35 7.62-34.18 9.52-35.01 11.69-35.01L11.69-35.01 27.76-35.01 27.76-28 11.69-28Q10.96-28 10.33-27.73 9.69-27.47 9.22-26.99 8.74-26.51 8.47-25.88 8.2-25.24 8.2-24.51L8.2-24.51Q8.2-23.78 8.47-23.13 8.74-22.49 9.22-22.01 9.69-21.53 10.33-21.26 10.96-21 11.69-21L11.69-21 18.7-21Q20.87-21 22.79-20.18 24.71-19.36 26.14-17.93 27.56-16.5 28.38-14.59 29.2-12.67 29.2-10.5L29.2-10.5Q29.2-8.33 28.38-6.42 27.56-4.52 26.14-3.09 24.71-1.66 22.79-0.83 20.87 0 18.7 0L18.7 0 3.15 0 3.15-7.01 18.7-7.01Q19.43-7.01 20.07-7.28 20.7-7.54 21.18-8.02 21.66-8.5 21.92-9.13 22.19-9.77 22.19-10.5L22.19-10.5Q22.19-11.23 21.92-11.87 21.66-12.5 21.18-12.98 20.7-13.45 20.07-13.72 19.43-13.99 18.7-13.99L18.7-13.99 11.69-13.99Q9.52-13.99 7.62-14.82 5.71-15.65 4.28-17.08 2.86-18.51 2.03-20.42 1.2-22.34 1.2-24.51ZM31.74-24.51L31.74-24.51Q31.74-26.68 32.57-28.59 33.4-30.49 34.82-31.92 36.25-33.35 38.16-34.18 40.06-35.01 42.23-35.01L42.23-35.01 58.3-35.01 58.3-28 42.23-28Q41.5-28 40.87-27.73 40.23-27.47 39.76-26.99 39.28-26.51 39.01-25.88 38.74-25.24 38.74-24.51L38.74-24.51Q38.74-23.78 39.01-23.13 39.28-22.49 39.76-22.01 40.23-21.53 40.87-21.26 41.5-21 42.23-21L42.23-21 49.24-21Q51.41-21 53.33-20.18 55.25-19.36 56.67-17.93 58.1-16.5 58.92-14.59 59.74-12.67 59.74-10.5L59.74-10.5Q59.74-8.33 58.92-6.42 58.1-4.52 56.67-3.09 55.25-1.66 53.33-0.83 51.41 0 49.24 0L49.24 0 33.69 0 33.69-7.01 49.24-7.01Q49.97-7.01 50.61-7.28 51.24-7.54 51.72-8.02 52.19-8.5 52.46-9.13 52.73-9.77 52.73-10.5L52.73-10.5Q52.73-11.23 52.46-11.87 52.19-12.5 51.72-12.98 51.24-13.45 50.61-13.72 49.97-13.99 49.24-13.99L49.24-13.99 42.23-13.99Q40.06-13.99 38.16-14.82 36.25-15.65 34.82-17.08 33.4-18.51 32.57-20.42 31.74-22.34 31.74-24.51Z" opacity="1" transform="matrix(1,0,0,1,0,0)" fill="#ffffff" class="wordmark-text-0" data-fill-palette-color="primary" id="text-0"/>
                            </svg>
                          </g>
                        </svg>
                      </g>
                    </svg>
                  </g>
                </svg>
              </g>
            </svg>
          </g>
          <defs/>
        </svg>
        <rect width="395.52" height="236.5203002502085" fill="none" stroke="none" visibility="hidden"/>
      </g>
    </svg>
  </g>
</svg>